<?xml version="1.0" standalone="no"?>
<!DOCTYPE svg PUBLIC "-//W3C//DTD SVG 1.1//EN" "http://www.w3.org/Graphics/SVG/1.1/DTD/svg11.dtd" >
<svg xmlns="http://www.w3.org/2000/svg">
<metadata></metadata>
<defs>
<font id="thaisans_neuebold" horiz-adv-x="821" >
<font-face units-per-em="2048" ascent="1552" descent="-496" />
<missing-glyph horiz-adv-x="659" />
<glyph horiz-adv-x="0" />
<glyph unicode="&#xd;" horiz-adv-x="659" />
<glyph unicode=" "  horiz-adv-x="659" />
<glyph unicode="&#x09;" horiz-adv-x="659" />
<glyph unicode="&#xa0;" horiz-adv-x="659" />
<glyph unicode="!" horiz-adv-x="329" d="M76 0v176h178v-176h-178zM76 283v827h178v-827h-178z" />
<glyph unicode="&#x22;" horiz-adv-x="595" d="M76 737v373h174v-373h-174zM346 737v373h174v-373h-174z" />
<glyph unicode="#" horiz-adv-x="1191" d="M76 297l41 156h155l43 157h-155l39 154h159l76 285h178l-77 -285h227l78 285h178l-78 -285h176l-43 -154h-174l-43 -157h176l-45 -156h-174l-80 -297h-176l80 297h-227l-82 -297h-176l79 297h-155zM451 453h227l43 157h-227z" />
<glyph unicode="$" horiz-adv-x="862" d="M76 74v147q49 -25 102 -43q47 -16 103.5 -29.5t115.5 -13.5q113 0 162 51.5t49 122.5q0 61 -40 96t-98 59.5t-128 45t-128 55.5t-98 89.5t-40 146.5q0 53 21.5 97t59.5 78t89 55.5t108 31.5v158h174v-156q53 -6 93.5 -17.5t68.5 -23.5q33 -14 55 -29v-147q-39 18 -86 33 q-41 12 -97 22t-128 10q-29 0 -59.5 -8t-58 -23.5t-45 -36t-17.5 -44.5q0 -49 40 -78t98.5 -51.5t128 -46t128 -62.5t98 -98t39.5 -156q0 -53 -12 -104t-43 -94t-81 -75t-124 -44v-162h-172v152q-66 2 -116 16t-86 31q-43 20 -76 45z" />
<glyph unicode="%" horiz-adv-x="1228" d="M76 877q0 145 61.5 232t165.5 87q100 0 159.5 -82t59.5 -223q0 -72 -16.5 -130.5t-47 -100.5t-72.5 -65.5t-93 -23.5q-102 0 -159.5 85t-57.5 221zM195 0l718 1278h195l-721 -1278h-192zM250 881q0 -51 4 -82t11 -46.5t16.5 -20.5t19.5 -5t19.5 5t16.5 21.5t11 47.5t4 82 q0 96 -15 126.5t-36 30.5q-25 0 -38 -30.5t-13 -128.5zM707 270q0 145 60 235.5t169 90.5q98 0 157.5 -85t59.5 -226t-64.5 -226.5t-162.5 -85.5q-100 0 -159.5 81t-59.5 216zM881 276q0 -82 13 -116.5t36 -34.5t38 33.5t15 117.5q0 164 -53 164q-23 0 -36 -36.5t-13 -127.5 z" />
<glyph unicode="&#x26;" horiz-adv-x="1189" d="M76 283q0 113 58.5 187.5t170.5 125.5q-47 31 -87 87t-40 134q0 55 22.5 101.5t63.5 80t96.5 52t120.5 18.5q59 0 111.5 -18.5t90.5 -50t60.5 -73.5t22.5 -89q0 -94 -49 -147.5t-139 -102.5q49 -33 82.5 -58.5t58 -50t45 -50.5t45.5 -58q55 98 76.5 179t25.5 159l2 55 h183q-4 -59 -17.5 -128t-36 -139.5t-55.5 -137t-74 -123.5q31 -39 77 -59.5t124 -20.5v-156q-213 0 -311 111q-78 -66 -165 -97.5t-200 -31.5q-80 0 -146.5 17t-114.5 54t-74.5 93.5t-26.5 136.5zM254 283q0 -47 16.5 -76t42 -44.5t58 -21.5t67.5 -6q90 0 145.5 24.5 t114.5 71.5q-31 43 -57.5 81t-57 72t-69.5 62.5t-94 53.5q-33 -16 -62.5 -32.5t-53 -41.5t-37 -58.5t-13.5 -84.5zM356 817q0 -53 26 -89t60 -58q78 33 112 73.5t34 83.5q0 39 -35 59.5t-72 20.5q-66 0 -95.5 -29.5t-29.5 -60.5z" />
<glyph unicode="'" horiz-adv-x="329" d="M76 737v373h178v-373h-178z" />
<glyph unicode="(" horiz-adv-x="505" d="M45 406q0 211 69.5 390t190.5 322h184q-121 -147 -197.5 -331.5t-76.5 -380.5q0 -207 78 -378t199 -315h-187q-129 154 -194.5 320t-65.5 373z" />
<glyph unicode=")" horiz-adv-x="505" d="M14 -287q121 143 198 316.5t77 373.5q0 207 -77 387.5t-198 327.5h185q121 -143 191.5 -322.5t70.5 -389.5q0 -213 -71 -385.5t-191 -307.5h-185z" />
<glyph unicode="*" horiz-adv-x="591" d="M76 811l166 86l-166 86l67 92l117 -110l-22 161h114l-24 -163l121 112l67 -92l-168 -86l168 -86l-67 -92l-121 112l24 -163h-114l22 161l-117 -110z" />
<glyph unicode="+" d="M76 365v155h256v266h157v-266h256v-155h-256v-242h-157v242h-256z" />
<glyph unicode="," horiz-adv-x="331" d="M-84 -223q43 29 80 65q29 33 54.5 78t25.5 103v145h180v-145q0 -61 -25.5 -107.5t-56.5 -77.5q-37 -37 -82 -61h-176z" />
<glyph unicode="-" horiz-adv-x="606" d="M76 389v148h454v-148h-454z" />
<glyph unicode="." horiz-adv-x="329" d="M76 0v168h178v-168h-178z" />
<glyph unicode="/" horiz-adv-x="544" d="M14 0l344 1278h172l-344 -1278h-172z" />
<glyph unicode="0" horiz-adv-x="903" d="M45 504q0 133 29.5 238.5t83 178t128 111.5t165.5 39q86 0 160.5 -36t130 -104.5t86 -171t30.5 -233.5q0 -129 -32.5 -230t-90 -171t-135.5 -106.5t-168 -36.5q-174 0 -280.5 135t-106.5 387zM223 510q0 -104 18.5 -176t49.5 -116t69.5 -63.5t81.5 -19.5t86 20.5t76 65.5 t53.5 118t20.5 177q0 109 -20.5 183.5t-53.5 121.5t-75 68.5t-87 21.5q-41 0 -80.5 -21.5t-70.5 -68.5t-49.5 -123.5t-18.5 -187.5z" />
<glyph unicode="1" horiz-adv-x="524" d="M45 723v154q49 18 92 46.5t78 57.5q37 33 72 68h162v-1049h-179v811q-35 -23 -97 -48.5t-128 -39.5z" />
<glyph unicode="2" horiz-adv-x="749" d="M45 0v127q0 61 35 117.5t87 109t113.5 102.5t113.5 100t87 102.5t35 109.5q0 82 -46 112.5t-103 30.5q-33 0 -71 -6t-76 -18.5t-72.5 -29.5t-61.5 -42v150q43 45 115.5 75.5t165.5 30.5q74 0 134 -21.5t103 -59.5t66.5 -92t23.5 -118q0 -78 -28.5 -140t-73.5 -115.5 t-99.5 -98.5t-105.5 -88t-92 -87t-57 -95h497v-156h-690z" />
<glyph unicode="3" horiz-adv-x="770" d="M76 51v162q49 -41 117.5 -59.5t136.5 -18.5q33 0 71.5 8.5t70.5 25.5t53.5 46t21.5 72q0 47 -19.5 79.5t-62.5 54t-113.5 31t-173.5 9.5v153q92 -2 164 15q31 6 60.5 17t52 28.5t37 42t14.5 57.5q0 43 -12.5 69.5t-33 42t-46 20.5t-49.5 5q-72 0 -136.5 -16t-111.5 -51 v151q47 31 111.5 53.5t136.5 22.5q57 0 114.5 -18.5t102.5 -53t73.5 -84t28.5 -108.5q0 -117 -69.5 -178.5t-170.5 -79.5q49 -6 99.5 -24.5t90.5 -49.5t65.5 -76t25.5 -102q0 -141 -104.5 -228t-290.5 -87q-72 0 -141.5 22.5t-112.5 46.5z" />
<glyph unicode="4" horiz-adv-x="792" d="M14 240v141l473 668h166v-650h125v-159h-125v-240h-178v240h-461zM229 399h246v353z" />
<glyph unicode="5" horiz-adv-x="729" d="M76 31v170q29 -18 63 -33q29 -12 67 -21.5t79 -9.5q47 0 87 8.5t69.5 29t47 54t17.5 84.5q0 78 -50 135.5t-157 57.5q-47 0 -89 -5t-71 -9q-37 -8 -63 -15v572h538v-158h-360v-238h61q76 0 143.5 -20.5t118 -62.5t79 -104t28.5 -144q0 -154 -101.5 -247t-297.5 -93 q-72 0 -124 16t-85 33z" />
<glyph unicode="6" horiz-adv-x="800" d="M45 457q0 156 33 270.5t91 191t139 114.5t177 38q25 0 53.5 -2t57.5 -6t55.5 -9t44.5 -14v-157q-31 6 -65 14q-29 6 -67 10t-79 4q-117 -2 -180 -82.5t-74 -214.5q39 39 93.5 52.5t103.5 13.5q63 0 122.5 -25.5t104.5 -71.5t73 -109.5t28 -137.5q0 -78 -28 -142.5 t-75 -111.5t-112.5 -73.5t-139.5 -26.5q-76 0 -140 31.5t-112.5 92t-76 148.5t-27.5 203zM233 346q0 -57 15.5 -97t39 -65.5t53.5 -37t60 -11.5q31 0 62 13.5t56.5 39t42 63.5t16.5 85q0 53 -15.5 90t-40 58.5t-56.5 30.5t-65 9q-45 0 -76.5 -18.5t-52 -45t-30 -57 t-9.5 -57.5z" />
<glyph unicode="7" horiz-adv-x="741" d="M14 891v158l713 -2v-62l-369 -985h-184l338 891h-498z" />
<glyph unicode="8" horiz-adv-x="780" d="M45 289q0 174 154 276q-59 43 -86 101.5t-27 121.5q0 55 21.5 105.5t61.5 90.5t96.5 63.5t123.5 23.5q63 0 119.5 -24.5t97.5 -64.5t64.5 -91t23.5 -103q0 -72 -29.5 -125t-82.5 -98q74 -45 113.5 -118.5t39.5 -157.5q0 -139 -91 -223t-251 -84q-170 0 -259 84t-89 223z M223 311q0 -92 50.5 -134t115.5 -42q66 0 117 41t51 133q0 78 -47 127t-121 49q-31 0 -60.5 -10t-53 -31.5t-38 -54.5t-14.5 -78zM264 776q0 -66 36 -99.5t89 -33.5q43 0 86 34t43 99q0 20 -8 45t-24.5 44.5t-40 32.5t-56.5 13q-37 0 -61.5 -13t-38 -33.5t-19.5 -44.5 t-6 -44z" />
<glyph unicode="9" horiz-adv-x="798" d="M45 715q0 80 28.5 145.5t77 112.5t112 72.5t134.5 25.5q82 0 147.5 -36t111.5 -100.5t72 -153t26 -197.5q0 -297 -120 -449.5t-337 -152.5q-47 0 -101.5 6t-91.5 20v158q25 -8 56 -16q27 -6 60.5 -10.5t74.5 -4.5q45 0 88 14.5t80 48t64.5 92t39.5 144.5q-37 -39 -92 -52 t-104 -13q-66 0 -125.5 27.5t-104.5 74.5t-70.5 109.5t-25.5 134.5zM221 715q0 -82 40 -137.5t136 -55.5q49 0 82 20.5t52.5 49.5t27.5 58.5t8 45.5q0 39 -9 78t-28.5 69.5t-52.5 49t-80 18.5q-41 0 -73.5 -18.5t-55 -46t-35 -63t-12.5 -68.5z" />
<glyph unicode=":" horiz-adv-x="329" d="M76 0v176h178v-176h-178zM76 586v176h178v-176h-178z" />
<glyph unicode=";" horiz-adv-x="331" d="M-84 -223q43 35 80 73q29 35 54.5 79t25.5 94v151h180v-151q0 -53 -25.5 -98.5t-56.5 -78.5q-37 -37 -82 -69h-176zM76 584v178h180v-178h-180z" />
<glyph unicode="&#x3c;" horiz-adv-x="794" d="M45 317v86l735 408v-178l-483 -271l483 -233v-172z" />
<glyph unicode="=" d="M76 225v154h669v-154h-669zM76 485v154h669v-154h-669z" />
<glyph unicode="&#x3e;" horiz-adv-x="794" d="M14 -43v172l484 233l-484 271v178l736 -408v-86z" />
<glyph unicode="?" horiz-adv-x="698" d="M76 819v148q20 29 57 51q31 20 79 36.5t118 16.5q57 0 109.5 -18.5t93 -51t65.5 -78.5t25 -102q0 -80 -39 -131t-85 -88t-84 -69.5t-38 -77.5v-172h-178v182q0 59 37.5 101t84 79t85 75t38.5 89q0 53 -35.5 77.5t-93.5 24.5q-55 0 -99 -15t-75 -32q-37 -20 -65 -45z M199 0v176h178v-176h-178z" />
<glyph unicode="@" horiz-adv-x="1339" d="M76 406q0 121 50 226t134 184t195.5 124t234.5 45q119 0 223.5 -38t182.5 -105.5t123 -158.5t45 -198q0 -82 -27 -152.5t-69 -122.5t-96 -82t-109 -30q-84 0 -120 33t-52 86q-27 -49 -71 -84t-130 -35q-53 0 -102.5 19.5t-87.5 58.5t-60.5 95.5t-22.5 127.5 q0 74 29 135.5t76 104.5t104.5 66.5t116.5 23.5q57 0 107.5 -28.5t66.5 -63.5l17 82h147l-61 -336q-4 -43 0 -78q4 -29 14 -52.5t37 -23.5q41 0 72.5 27t53 64.5t33 83t11.5 81.5q0 59 -30 129t-86 129.5t-140 99.5t-195 40t-202 -46t-155.5 -116t-99 -155t-34.5 -160 q0 -82 30.5 -161t91 -141.5t147.5 -101.5t200 -39q80 0 156.5 18.5t138.5 41.5v-107q-70 -23 -144 -39t-151 -16q-123 0 -230.5 41t-187.5 113.5t-127 172t-47 218.5zM498 399q0 -43 11 -71.5t26.5 -44t33 -21.5t29.5 -6q41 0 69.5 18.5t46 49t24.5 70.5t7 83q1 109 -81 109 q-41 0 -72 -15.5t-52.5 -41t-31.5 -59.5t-10 -71z" />
<glyph unicode="A" horiz-adv-x="966" d="M14 0l387 1049h162l389 -1049h-182l-98 262h-383l-101 -262h-174zM344 420h272l-133 385z" />
<glyph unicode="B" horiz-adv-x="841" d="M76 0v1049h313q74 0 132.5 -19.5t99.5 -54.5t62.5 -82t21.5 -102q0 -51 -17.5 -91.5t-47.5 -70t-67.5 -46t-78.5 -22.5q47 -4 96 -20.5t88 -46t63.5 -75.5t24.5 -110q0 -74 -32 -131t-84 -97t-120.5 -60.5t-142.5 -20.5h-311zM254 156h121q96 0 154.5 44t58.5 109 q0 70 -53.5 118t-176.5 48h-104v-319zM254 633h86q86 0 136 33.5t50 103.5q0 37 -15 59.5t-38.5 37t-53.5 19.5t-61 5h-104v-258z" />
<glyph unicode="C" horiz-adv-x="901" d="M45 514q0 125 40 228.5t110.5 176t166 112.5t207.5 40q102 0 185.5 -16.5t132.5 -38.5l-62 -154q-59 29 -124.5 39t-131.5 10q-92 0 -157.5 -38.5t-107.5 -97t-60.5 -129.5t-18.5 -132q0 -86 24.5 -155.5t70 -120t109 -77t140.5 -26.5q78 0 137.5 20.5t118.5 51.5 l62 -152q-59 -35 -146.5 -54t-185.5 -19q-115 0 -208 38.5t-160.5 109.5t-104.5 169t-37 215z" />
<glyph unicode="D" horiz-adv-x="995" d="M76 0v1049h301q131 0 237.5 -30t181 -92.5t114.5 -159.5t40 -232q0 -125 -45 -224.5t-124 -169t-186.5 -105.5t-229.5 -36h-289zM254 156h111q98 0 173.5 28.5t128 78.5t79 120t26.5 152q0 172 -95 264t-300 92h-123v-735z" />
<glyph unicode="E" horiz-adv-x="739" d="M76 0v1049h588v-158h-410v-289h369v-158h-369v-288h410v-156h-588z" />
<glyph unicode="F" horiz-adv-x="677" d="M76 0v1049h588v-158h-410v-289h369v-158h-369v-444h-178z" />
<glyph unicode="G" horiz-adv-x="1015" d="M45 504q0 119 42 223t117 180t178 120t226 44q82 0 140.5 -12t97.5 -27q45 -16 74 -37v-172q-12 10 -40 25.5t-69 29t-97.5 23.5t-123.5 10q-92 0 -161 -36.5t-115 -95t-68.5 -131.5t-22.5 -144q0 -72 21.5 -138.5t64.5 -117.5t107.5 -82t152.5 -31q33 0 57.5 1t46 5 t43 11.5t46.5 17.5v236h-225v155h403v-498q-78 -45 -179.5 -63t-199.5 -18q-109 0 -203 36.5t-163.5 104t-109.5 164t-40 217.5z" />
<glyph unicode="H" horiz-adv-x="964" d="M76 0v1049h178v-426h457l-2 426h180v-1049h-178v465h-457v-465h-178z" />
<glyph unicode="I" horiz-adv-x="329" d="M76 0v1049h178v-1049h-178z" />
<glyph unicode="J" horiz-adv-x="583" d="M14 23l62 137q16 -6 37 -13q16 -4 36.5 -8t43.5 -4q66 0 100.5 56.5t34.5 183.5v674h180v-674q0 -104 -26.5 -180t-70.5 -123t-103.5 -69.5t-125.5 -22.5q-39 0 -69.5 6t-53.5 14q-25 8 -45 23z" />
<glyph unicode="K" horiz-adv-x="868" d="M76 0v1049h178v-453l367 453h215l-299 -375l317 -674h-190l-246 530l-164 -200v-330h-178z" />
<glyph unicode="L" horiz-adv-x="677" d="M76 0v1049h178v-893h410v-156h-588z" />
<glyph unicode="M" horiz-adv-x="1251" d="M76 0v1049h209l331 -770l349 770h211v-1049h-179v721l-333 -721h-99l-311 711v-711h-178z" />
<glyph unicode="N" horiz-adv-x="1026" d="M76 0v1049h196l498 -770v770h180v-1049h-196l-500 760v-760h-178z" />
<glyph unicode="O" horiz-adv-x="1107" d="M45 510q0 125 35 228.5t101.5 177t160.5 114.5t215 41q117 0 210 -41t158.5 -112.5t101.5 -170t36 -215.5q0 -125 -36 -226t-102.5 -174t-163.5 -111.5t-220 -38.5q-115 0 -206 38.5t-155.5 108.5t-99.5 167t-35 214zM223 510q0 -92 25.5 -163t68.5 -118t100.5 -70.5 t123.5 -23.5q72 0 135 23.5t109 73t73 124t27 176.5q0 92 -25.5 164t-71 119t-103.5 71.5t-124 24.5q-72 0 -134 -24.5t-107.5 -74.5t-71 -126t-25.5 -176z" />
<glyph unicode="P" horiz-adv-x="790" d="M76 0v1049h299q80 0 147.5 -19.5t117.5 -60.5t77.5 -103.5t27.5 -146.5q0 -90 -30.5 -156.5t-83.5 -110.5t-126 -65.5t-159 -21.5h-92v-365h-178zM254 520h92q121 0 171 55.5t50 141.5q0 39 -7 70.5t-28.5 54t-58.5 36t-98 13.5h-121v-371z" />
<glyph unicode="Q" horiz-adv-x="1107" d="M45 510q0 125 36 228.5t102.5 177t158.5 114.5t205 41q119 0 215 -41t162.5 -112.5t102.5 -170t36 -215.5q0 -176 -68.5 -301t-179.5 -186q25 -10 53.5 -25.5t52 -38t39 -53t15.5 -69.5h-170q0 29 -13.5 50t-33 38.5t-43 29t-41.5 17.5q-33 -8 -72 -10t-76 -2 q-106 0 -195 38.5t-152.5 108.5t-98.5 167t-35 214zM223 510q0 -92 24.5 -163t66.5 -118t100.5 -70.5t126.5 -23.5q72 0 134 23.5t109 73t74 124t27 176.5q0 92 -25.5 164t-72 119t-108 71.5t-132.5 24.5q-66 0 -124 -24.5t-103.5 -74.5t-71 -126t-25.5 -176z" />
<glyph unicode="R" horiz-adv-x="894" d="M76 0v1049h327q66 0 127.5 -18.5t109.5 -55.5t78 -93.5t30 -129.5q0 -53 -21.5 -95.5t-55.5 -73t-75 -48t-82 -23.5q47 -16 93 -81.5t93 -141.5l181 -289h-205l-156 258q-57 94 -106 130t-92 36h-68v-424h-178zM254 582l125 2q90 2 139 43t49 125q0 59 -45 99t-143 40 h-125v-309z" />
<glyph unicode="S" horiz-adv-x="862" d="M76 74v151q41 -25 90 -45q41 -16 95 -29.5t114 -13.5q104 0 168.5 38t64.5 134q0 61 -40 97t-98 59.5t-128 44t-128 54.5t-98 89.5t-40 147.5q0 59 28.5 108t77.5 85t113.5 55.5t134.5 19.5q84 0 143.5 -11t98.5 -26q45 -16 73 -37v-153q-39 18 -88 35q-41 12 -98 23 t-129 11t-123 -31.5t-51 -78.5q0 -51 39 -80t98.5 -51.5t128 -45t128 -60.5t98 -98t38.5 -157q0 -68 -19 -127t-65.5 -104t-120 -70.5t-180.5 -25.5q-80 0 -140 14t-101 31q-49 20 -84 47z" />
<glyph unicode="T" horiz-adv-x="770" d="M14 891v158h742v-158h-277v-891h-178v891h-287z" />
<glyph unicode="U" horiz-adv-x="964" d="M76 403v646h178v-637q0 -154 56.5 -215.5t160.5 -61.5q49 0 92 13.5t76 44t52.5 81t19.5 125.5v650h178v-631q0 -229 -112.5 -332.5t-305.5 -103.5q-184 0 -289.5 101t-105.5 320z" />
<glyph unicode="V" horiz-adv-x="966" d="M14 1049h181l288 -797l287 797h182l-389 -1049h-162z" />
<glyph unicode="W" horiz-adv-x="1392" d="M14 1049h181l215 -779l235 779h123l197 -775l233 775h180l-323 -1049h-187l-166 707l-200 -707h-187z" />
<glyph unicode="X" horiz-adv-x="929" d="M14 0l344 524l-321 525h209l219 -371l240 371h210l-346 -525l346 -524h-210l-240 371l-242 -371h-209z" />
<glyph unicode="Y" horiz-adv-x="876" d="M14 1049h185l229 -476l248 476h186l-346 -664v-385h-180v381z" />
<glyph unicode="Z" horiz-adv-x="841" d="M14 0v66l549 825h-508v158h772v-68l-548 -825h528v-156h-793z" />
<glyph unicode="[" horiz-adv-x="456" d="M76 -287v1407h366v-155h-200v-1096h200v-156h-366z" />
<glyph unicode="\" horiz-adv-x="544" d="M14 1278h172l344 -1278h-172z" />
<glyph unicode="]" horiz-adv-x="456" d="M14 -131h201v1096h-201v155h367v-1407h-367v156z" />
<glyph unicode="^" horiz-adv-x="1017" d="M76 395l366 725h88l412 -725h-178l-275 477l-237 -477h-176z" />
<glyph unicode="_" d="M76 45h669v-145h-669v145z" />
<glyph unicode="`" horiz-adv-x="546" d="M76 1174h194l201 -273h-170z" />
<glyph unicode="a" horiz-adv-x="784" d="M76 633q23 43 63 80q35 29 93.5 54.5t148.5 25.5q63 0 122.5 -18.5t104.5 -55.5t73 -94.5t28 -132.5v-492h-170v104q-14 -16 -35 -36.5t-46.5 -39t-58 -30.5t-71.5 -12q-110 0 -182 64q-69 60 -68 158v11q2 68 29.5 109t66.5 64.5t84 31.5t84 8q53 0 91 4t61 10 q27 8 43 17q0 55 -13.5 91t-35 56.5t-51 28.5t-60.5 8q-63 0 -110.5 -20.5t-78.5 -42.5q-37 -27 -63 -62zM248 219q0 -57 37 -75.5t84 -18.5t96 24.5t74 59.5v125q-25 -6 -52 -12q-51 -10 -112 -11q-20 0 -43 -6t-41.5 -17.5t-30.5 -28.5t-12 -40z" />
<glyph unicode="b" horiz-adv-x="882" d="M76 0v1110h168v-453q18 39 49 70q27 27 70 48.5t104 21.5q53 0 117.5 -23.5t121 -72t94.5 -122t38 -176.5q0 -113 -36 -191.5t-91.5 -127.5t-122 -71.5t-127.5 -22.5t-103.5 20.5t-66.5 46.5q-31 29 -47 68v-125h-168zM244 231q27 -27 61 -47q29 -18 67 -32.5t83 -14.5 q39 0 77.5 14.5t69.5 46t49.5 83t18.5 122.5q0 57 -19.5 102.5t-50.5 77t-68.5 49t-76.5 17.5q-45 0 -83 -15.5t-67 -33.5q-35 -23 -61 -47v-322z" />
<glyph unicode="c" horiz-adv-x="686" d="M45 371q0 94 30.5 172t85 133t126 86t153.5 31q47 0 88 -11.5t74 -23.5q37 -14 70 -33l-68 -145q-25 18 -49 32q-23 12 -51.5 23.5t-61.5 11.5q-53 0 -95 -23.5t-71.5 -61.5t-46 -88t-16.5 -103q0 -111 63.5 -173.5t167.5 -62.5q33 0 62 10.5t51 22.5q25 14 47 35 l68 -148q-35 -18 -74 -32q-35 -12 -77 -22.5t-85 -10.5q-80 0 -150.5 24.5t-125 72.5t-85 118.5t-30.5 165.5z" />
<glyph unicode="d" horiz-adv-x="882" d="M45 403q0 94 35 167t87 122t114.5 75t115.5 26q61 0 106.5 -21.5t76.5 -46.5q35 -31 59 -68v453h168v-1110h-168v125q-23 -39 -57 -68q-29 -25 -73 -45t-106 -20q-61 0 -124.5 25.5t-115.5 75.5t-85 128t-33 182zM213 403q0 -63 17.5 -113t45 -84t63.5 -52.5t75 -18.5 q53 0 95 14.5t71 32.5q35 23 59 49v322q-25 25 -57 47q-29 16 -71 31.5t-95 15.5q-39 0 -75 -19.5t-64.5 -52t-46 -76.5t-17.5 -96z" />
<glyph unicode="e" horiz-adv-x="778" d="M45 379q0 84 25.5 158.5t72.5 132t111.5 90.5t144.5 33q162 0 245 -102.5t87 -276.5l2 -82h-518q0 -88 59.5 -142.5t157.5 -54.5q55 0 93 11.5t61 25.5q27 16 45 37l59 -129q-31 -25 -72 -45q-35 -16 -85 -29.5t-113 -13.5q-82 0 -150.5 22.5t-119 70.5t-78 121 t-27.5 173zM221 479h336q-2 61 -42 114.5t-116 53.5q-35 0 -65.5 -15.5t-54 -39t-39 -53t-19.5 -60.5z" />
<glyph unicode="f" horiz-adv-x="534" d="M14 618v148h131l2 84q2 59 14.5 110.5t40 89t71.5 59t112 21.5q35 0 61.5 -3t42.5 -7q20 -6 31 -10v-154q-14 6 -31 15q-14 4 -30.5 9t-34.5 5t-37.5 -5t-35 -19.5t-26 -41t-10.5 -69.5v-84h205v-148h-205v-618h-168v618h-133z" />
<glyph unicode="g" horiz-adv-x="882" d="M45 379q0 104 34 182t88 129t118.5 77t126.5 26q61 0 103 -21.5t71 -46.5q33 -31 53 -68l-2 125h170v-737q0 -211 -106.5 -307t-319.5 -96q-61 0 -111.5 14t-85.5 31q-41 20 -75 47l61 137q23 -23 53 -41q27 -16 66 -27.5t92 -11.5t100 10.5t82 36t55.5 70.5t20.5 117 v100q-20 -39 -51 -68q-27 -27 -69 -47t-103 -20t-127 24.5t-120 73.5t-89 122t-35 169zM213 379q0 -47 16.5 -91t44 -79t63.5 -55.5t75 -20.5q53 0 96 14.5t72 32.5q35 20 59 47v324q-25 25 -59 47q-29 16 -72 31.5t-96 15.5q-39 0 -75 -18.5t-63.5 -53t-44 -84 t-16.5 -110.5z" />
<glyph unicode="h" d="M76 0v1110h168v-473q20 43 51 78q27 29 66.5 53.5t95.5 24.5q74 0 129 -24t90 -63.5t52 -93t17 -112.5v-500h-167v506q0 55 -43 93t-121 38q-41 0 -72 -15.5t-53 -31.5q-25 -20 -45 -45v-545h-168z" />
<glyph unicode="i" horiz-adv-x="319" d="M76 0v782h168v-782h-168zM76 893v166h168v-166h-168z" />
<glyph unicode="j" horiz-adv-x="319" d="M-215 -303l61 135q14 -12 29 -20q12 -8 27.5 -14.5t29.5 -6.5q61 0 102.5 47t41.5 172v772h168v-747q0 -176 -79 -283.5t-235 -107.5q-35 0 -61.5 8t-44.5 18q-23 10 -39 27zM76 893v166h168v-166h-168z" />
<glyph unicode="k" horiz-adv-x="749" d="M76 0v1110h168v-682l278 344h197l-223 -274l235 -498h-170l-170 369l-147 -185v-184h-168z" />
<glyph unicode="l" horiz-adv-x="319" d="M76 0v1110h168v-1110h-168z" />
<glyph unicode="m" horiz-adv-x="1323" d="M76 0v782h168v-145q0 2 13 26.5t39 53t68 52.5t101 24q104 0 165.5 -50.5t90.5 -113.5q8 12 26.5 38.5t47 54.5t69.5 49.5t94 21.5q74 0 129.5 -25t90 -65.5t52 -93t17.5 -109.5v-500h-168v506q0 47 -40 89t-117 42q-39 0 -71 -15.5t-54 -31.5q-27 -20 -52 -45v-545h-167 v506q0 57 -43 93t-121 36q-37 0 -69 -14.5t-54 -30.5q-27 -20 -47 -45v-545h-168z" />
<glyph unicode="n" d="M76 0v782h168v-145q20 43 53 78q29 29 71 53.5t101 24.5q70 0 122 -25t86 -65.5t51 -93t17 -109.5v-500h-167l-3 506q0 49 -39.5 90t-111.5 41q-41 0 -75 -15.5t-56 -31.5q-27 -20 -49 -45v-545h-168z" />
<glyph unicode="o" horiz-adv-x="860" d="M45 381q0 92 26.5 168t77 130t123 84t164.5 30q88 0 159 -30t120 -82t74.5 -125t25.5 -159q0 -186 -104.5 -296.5t-288.5 -110.5q-86 0 -155.5 28.5t-119 80t-76 124t-26.5 158.5zM213 381q0 -49 12.5 -94t38 -79t65.5 -53.5t93 -19.5q117 0 171 74t54 188q0 51 -13 96.5 t-39 79t-66 54t-93 20.5q-59 0 -101 -21.5t-68.5 -58.5t-40 -85t-13.5 -101z" />
<glyph unicode="p" horiz-adv-x="882" d="M76 -326v1108h168v-125q25 37 57 68q29 25 67 46.5t89 21.5q74 0 142.5 -26t121.5 -77t85 -129t32 -182q0 -96 -36 -169t-90.5 -122t-117 -73.5t-115.5 -24.5q-61 0 -106 20.5t-74 46.5q-35 29 -55 68v-451h-168zM244 227q27 -27 61 -47q29 -18 70 -32.5t92 -14.5 q25 0 59.5 14.5t66.5 44t53.5 75.5t21.5 112q0 82 -22.5 133t-54.5 81t-69 41t-67 11q-45 0 -83 -15.5t-67 -31.5q-35 -23 -61 -47v-324z" />
<glyph unicode="q" horiz-adv-x="882" d="M45 379q0 104 32 182t81 129t111.5 77t123.5 26t107.5 -21.5t77.5 -46.5q37 -31 61 -68v125h168v-1108h-168v451q-20 -39 -53 -68q-29 -27 -71 -47t-103 -20q-59 0 -125 24.5t-119 73.5t-88 122t-35 169zM213 379q0 -66 21.5 -112t53 -75.5t66.5 -44t62 -14.5 q47 0 89 14.5t70 32.5q35 20 64 47v324q-29 25 -64 47q-29 16 -67.5 31.5t-83.5 15.5q-27 0 -62.5 -11t-68.5 -41t-56.5 -81t-23.5 -133z" />
<glyph unicode="r" horiz-adv-x="518" d="M76 0v782h168v-213q18 61 45 113q23 41 57.5 77t83.5 36q12 0 25.5 -3.5t23.5 -7.5q12 -4 25 -8v-170q-14 4 -29 10q-12 4 -26.5 7.5t-30.5 3.5q-31 0 -62.5 -27t-56.5 -59q-29 -37 -55 -84v-457h-168z" />
<glyph unicode="s" horiz-adv-x="698" d="M76 41v145q29 -18 65 -30q31 -12 71 -21.5t87 -9.5q84 0 120 27.5t36 74.5q0 41 -28 64.5t-71 40t-91 31t-91 40t-70.5 65.5t-27.5 107q0 53 26.5 95.5t66.5 72t88 45t91 15.5q61 0 105.5 -10.5t72.5 -22.5q33 -14 56 -33v-141q-29 16 -66 31q-31 10 -74 20t-94 10 q-43 0 -73.5 -26.5t-30.5 -55.5q0 -33 27.5 -49t70.5 -29.5t91 -27.5t91 -43t71 -76t28 -123q0 -102 -80 -173.5t-236 -71.5q-47 0 -88 9t-74 19q-37 12 -69 31z" />
<glyph unicode="t" horiz-adv-x="534" d="M14 618v148h133l-2 344h170v-344h205v-148h-205v-348q0 -43 9.5 -69.5t23.5 -41t32.5 -19.5t37.5 -5q23 0 40 4t31 8q16 6 31 15v-152q-10 -6 -28 -10q-16 -4 -42 -6t-61 -2q-127 0 -185.5 77.5t-58.5 198.5v350h-131z" />
<glyph unicode="u" d="M76 283v499h168v-491q0 -74 48 -107.5t103 -33.5q41 0 74 14t57 33q29 20 52 47v538h167v-778h-167v141q-14 -43 -43 -75q-25 -29 -66 -51.5t-100 -22.5q-74 0 -129.5 23.5t-92 63.5t-54 91t-17.5 109z" />
<glyph unicode="v" horiz-adv-x="784" d="M14 782h193l194 -542l197 542h172l-276 -782h-183z" />
<glyph unicode="w" horiz-adv-x="1136" d="M14 782h191l135 -524l170 524h125l151 -524l154 524h182l-243 -782h-164l-146 506l-161 -506h-175z" />
<glyph unicode="x" horiz-adv-x="747" d="M14 0l265 391l-265 391h191l168 -252l170 252h190l-264 -401l264 -381h-190l-170 242l-170 -242h-189z" />
<glyph unicode="y" horiz-adv-x="831" d="M18 -307l60 135q16 -10 33 -18q14 -8 30.5 -13.5t32.5 -5.5q84 0 125 109l47 123l-328 759h183l235 -532l199 532h182l-358 -909q-23 -55 -47.5 -98t-56 -73t-73.5 -44t-100 -14q-41 0 -71.5 7t-51.5 17q-23 10 -41 25z" />
<glyph unicode="z" horiz-adv-x="735" d="M76 0v68l393 569h-354v145h606v-73l-391 -564h385v-145h-639z" />
<glyph unicode="{" horiz-adv-x="483" d="M45 313v140q61 6 94 33.5t33 111.5v240q0 127 64.5 200.5t232.5 83.5v-155q-20 0 -41.5 -7.5t-40 -22.5t-31 -40t-12.5 -63v-246q0 -82 -44 -136.5t-116 -74.5q68 -16 114 -70.5t46 -140.5v-236q0 -43 12.5 -69.5t31 -40t41 -17.5t40.5 -4v-155q-154 0 -225.5 72.5 t-71.5 199.5v244q0 84 -33 114.5t-94 38.5z" />
<glyph unicode="|" horiz-adv-x="321" d="M76 -256v1477h170v-1477h-170z" />
<glyph unicode="}" horiz-adv-x="483" d="M14 -201q18 0 41 4t41.5 17.5t30.5 40t12 69.5v236q0 86 46 140t114 71q-72 20 -116 74.5t-44 136.5v246q0 39 -12 63.5t-30.5 39.5t-40 22.5t-42.5 7.5v155q168 -10 232.5 -83.5t64.5 -200.5v-240q0 -84 33 -111.5t94 -33.5v-140q-61 -8 -94 -38.5t-33 -114.5v-244 q0 -127 -71.5 -199.5t-225.5 -72.5v155z" />
<glyph unicode="~" horiz-adv-x="819" d="M76 338q0 41 11 84t33.5 76.5t59.5 55t90 21.5q45 0 81 -16t67 -35.5t60.5 -36t62.5 -16.5t45 25.5t16 78.5h141q-2 -49 -13 -92t-34.5 -75.5t-59.5 -51t-85 -18.5t-88 16.5t-71 35t-59.5 34.5t-53.5 16q-35 0 -49.5 -23.5t-14.5 -78.5h-139z" />
<glyph unicode="&#xa9;" horiz-adv-x="1345" d="M76 496q0 125 47 233.5t128 189t189.5 127t233.5 46.5t233.5 -46.5t189.5 -127t127 -189t46 -233.5t-46 -233.5t-127 -188.5t-189.5 -126t-233.5 -46t-233.5 46t-189.5 126t-128 188.5t-47 233.5zM160 494q0 -106 40 -199.5t109.5 -162.5t163.5 -108.5t201 -39.5 q106 0 200.5 39.5t164 108.5t109.5 162t40 200q0 106 -40 200t-109.5 164t-164 110t-200.5 40t-200.5 -40t-164 -110t-109.5 -164t-40 -200zM324 485q0 88 26.5 159t74.5 121t114.5 76.5t148.5 26.5q47 0 105.5 -7t95.5 -21l-31 -64q-37 16 -82 22.5t-86 6.5 q-68 0 -121 -25.5t-90 -69.5t-56.5 -102.5t-19.5 -122.5q0 -135 76 -224t211 -89q53 0 90 10.5t78 32.5l29 -65q-41 -23 -96.5 -33.5t-110.5 -10.5q-162 0 -259 102.5t-97 276.5z" />
<glyph unicode="&#xad;" horiz-adv-x="606" d="M76 389v148h454v-148h-454z" />
<glyph unicode="&#xae;" horiz-adv-x="1345" d="M76 496q0 125 47 233.5t128 189t189.5 127t233.5 46.5t233.5 -46.5t189.5 -127t127 -189t46 -233.5t-46 -233.5t-127 -188.5t-189.5 -126t-233.5 -46t-233.5 46t-189.5 126t-128 188.5t-47 233.5zM160 494q0 -109 40 -202t109.5 -162t163.5 -108.5t201 -39.5 q106 0 200.5 39.5t164 108.5t109.5 162t40 202q0 106 -40 200t-109.5 164t-164 110t-200.5 40t-200.5 -40t-164 -110t-109.5 -164t-40 -200zM455 137v742h219q45 0 86 -12.5t71.5 -37t49 -61.5t18.5 -88q0 -49 -14.5 -84t-39 -58.5t-56 -37t-66.5 -19.5q37 -20 70.5 -53 t50.5 -61l141 -230h-96l-125 209q-33 53 -80 83t-76 30h-73v-322h-80zM535 524h98q37 0 70.5 9.5t59 29t42 48t16.5 69.5q0 61 -44 96t-122 35h-120v-287z" />
<glyph unicode="&#xbc;" horiz-adv-x="1517" d="M90 1087v84q27 10 50.5 25.5t41.5 32.5q23 18 39 37h88v-574h-96v443q-18 -10 -53 -24.5t-70 -23.5zM315 0l754 1278h174l-756 -1278h-172zM1055 209v78l258 364h90v-356h67v-86h-67v-131h-98v131h-250zM1171 295h134v192z" />
<glyph unicode="&#xbd;" horiz-adv-x="1540" d="M90 1087v84q27 10 50.5 25.5t41.5 32.5q23 18 39 37h88v-574h-96v443q-18 -10 -53 -24.5t-70 -23.5zM315 0l754 1278h174l-756 -1278h-172zM1094 78v69q0 51 41 96.5t90 87.5t90 84t41 89t-25.5 63.5t-58.5 16.5q-35 0 -80 -13.5t-76 -40.5v84q25 25 66 42.5t90 17.5 q82 0 132 -45t50 -117q0 -66 -34 -113t-78 -85t-86 -72.5t-56 -77.5h277v-86h-383z" />
<glyph unicode="&#xbe;" horiz-adv-x="1538" d="M76 731v88q29 -23 65.5 -33t73.5 -10q18 0 38.5 4t39 13.5t30 26t11.5 38.5q0 53 -45 74.5t-158 21.5v84q51 0 90 9q35 8 62.5 25.5t27.5 51.5q0 47 -24.5 61.5t-53.5 14.5q-84 0 -135 -37v82q27 16 61 28.5t74 12.5q31 0 63 -10t56.5 -28.5t40 -45t15.5 -59.5 q0 -66 -38 -98.5t-94 -43.5q55 -6 104.5 -40t49.5 -97q0 -78 -56.5 -125t-158.5 -47q-41 0 -79 12.5t-60 26.5zM336 0l754 1278h174l-756 -1278h-172zM1075 209v78l258 364h90v-356h68v-86h-68v-131h-98v131h-250zM1192 295h133v192z" />
<glyph unicode="&#x2000;" horiz-adv-x="682" />
<glyph unicode="&#x2001;" horiz-adv-x="1365" />
<glyph unicode="&#x2002;" horiz-adv-x="682" />
<glyph unicode="&#x2003;" horiz-adv-x="1365" />
<glyph unicode="&#x2004;" horiz-adv-x="455" />
<glyph unicode="&#x2005;" horiz-adv-x="341" />
<glyph unicode="&#x2006;" horiz-adv-x="227" />
<glyph unicode="&#x2007;" horiz-adv-x="227" />
<glyph unicode="&#x2008;" horiz-adv-x="170" />
<glyph unicode="&#x2009;" horiz-adv-x="273" />
<glyph unicode="&#x200a;" horiz-adv-x="75" />
<glyph unicode="&#x2010;" horiz-adv-x="606" d="M76 389v148h454v-148h-454z" />
<glyph unicode="&#x2011;" horiz-adv-x="606" d="M76 389v148h454v-148h-454z" />
<glyph unicode="&#x2012;" horiz-adv-x="606" d="M76 389v148h454v-148h-454z" />
<glyph unicode="&#x2013;" d="M76 389v148h669v-148h-669z" />
<glyph unicode="&#x2014;" horiz-adv-x="1210" d="M76 389v148h1059v-148h-1059z" />
<glyph unicode="&#x2018;" horiz-adv-x="329" d="M76 737v146q0 53 24.5 98t55.5 80q37 37 82 69h180q-45 -35 -82 -73q-31 -35 -56.5 -80t-25.5 -94v-146h-178z" />
<glyph unicode="&#x2019;" horiz-adv-x="331" d="M-84 737q43 35 80 74q29 35 54.5 80t25.5 94v145h180v-145q0 -53 -25.5 -97t-56.5 -79q-37 -39 -82 -72h-176z" />
<glyph unicode="&#x201c;" horiz-adv-x="595" d="M76 737v146q0 53 24.5 98t55.5 80q37 37 82 69h163q-43 -35 -75 -73q-29 -35 -52.5 -80t-23.5 -94v-146h-174zM346 737v146q0 53 26.5 98t59.5 80q37 37 88 69h164q-45 -35 -82 -73q-31 -35 -56.5 -80t-25.5 -94v-146h-174z" />
<glyph unicode="&#x201d;" horiz-adv-x="598" d="M-84 737q43 35 80 74q29 35 54.5 80t25.5 94v145h174v-145q0 -53 -27.5 -97t-60.5 -79q-37 -39 -86 -72h-160zM195 737q41 35 75 74q29 35 53.5 80t24.5 94v145h174v-145q0 -53 -25.5 -97t-56.5 -79q-37 -39 -82 -72h-163z" />
<glyph unicode="&#x2022;" horiz-adv-x="569" d="M76 465q0 45 16.5 83t45 66.5t67.5 45t82 16.5t81 -16.5t65.5 -45t44 -66.5t16.5 -83q0 -43 -16.5 -80t-44 -65.5t-65.5 -45t-81 -16.5t-82 16.5t-67.5 45t-45 65.5t-16.5 80z" />
<glyph unicode="&#x2026;" horiz-adv-x="1189" d="M76 0v168h178v-168h-178zM506 0v168h178v-168h-178zM936 0v168h178v-168h-178z" />
<glyph unicode="&#x202f;" horiz-adv-x="273" />
<glyph unicode="&#x205f;" horiz-adv-x="341" />
<glyph unicode="&#x20ac;" horiz-adv-x="1095" d="M76 334v129h102v51v30.5t2 30.5h-104v130h127q63 188 196 275t314 87q104 0 181 -14.5t126 -36.5l-62 -154q-59 29 -121.5 39t-127.5 10q-111 0 -193 -54t-119 -152h389v-130h-426q-2 -16 -3 -30.5t-1 -30.5v-26.5t2 -24.5h387v-129h-352q25 -53 60.5 -91t77.5 -61.5 t88.5 -35t89.5 -11.5q78 0 133 20.5t114 51.5l62 -152q-59 -35 -139 -54t-189 -19q-88 0 -167 23.5t-142.5 68.5t-109.5 110.5t-66 149.5h-129z" />
<glyph unicode="&#x2122;" horiz-adv-x="802" d="M76 985v45h250v-45h-97v-313h-53v313h-100zM362 672v358h64l117 -274l127 274h57v-358h-45v276l-129 -276h-21l-118 276v-276h-52z" />
<glyph unicode="&#x25fc;" horiz-adv-x="778" d="M0 0v778h778v-778h-778z" />
</font>
</defs>
</svg>
